<svg width="20" height="21" viewBox="0 0 20 21" fill="none" xmlns="http://www.w3.org/2000/svg">
<path d="M7.20852 11.2412C7.30886 11.2412 7.41427 11.2841 7.49877 11.3758C7.58453 11.4689 7.63902 11.6033 7.63902 11.7511V13.771C7.63902 13.9189 7.58453 14.0533 7.49877 14.1463C7.41427 14.238 7.30886 14.2809 7.20852 14.2809C7.10817 14.2809 7.00276 14.238 6.91827 14.1463C6.83251 14.0533 6.77802 13.9189 6.77802 13.771V11.7511C6.77802 11.6033 6.83251 11.4689 6.91827 11.3758C7.00276 11.2841 7.10817 11.2412 7.20852 11.2412ZM13.0818 11.3758C13.1675 11.4689 13.222 11.6033 13.222 11.7511V13.771C13.222 13.9189 13.1675 14.0533 13.0818 14.1463C12.9973 14.238 12.8919 14.2809 12.7915 14.2809C12.6912 14.2809 12.5858 14.238 12.5013 14.1463C12.4155 14.0533 12.361 13.9189 12.361 13.771V11.7511C12.361 11.6033 12.4155 11.4689 12.5013 11.3758C12.5858 11.2841 12.6912 11.2412 12.7915 11.2412C12.8919 11.2412 12.9973 11.2841 13.0818 11.3758Z" fill="black" stroke="black"/>
<path d="M10.7407 5.35486V5.85486H11.2407H15.2728C15.8668 5.85486 16.4455 6.11056 16.879 6.58106C17.3138 7.05294 17.5644 7.70109 17.5644 8.38465V11.4144V11.9144H18.0644H18.9949C19.0952 11.9144 19.2006 11.9573 19.2851 12.049C19.3709 12.1421 19.4254 12.2765 19.4254 12.4244C19.4254 12.5722 19.3709 12.7066 19.2851 12.7997C19.2006 12.8914 19.0952 12.9343 18.9949 12.9343H18.0644H17.5644V13.4343V17.1374C17.5644 17.8209 17.3138 18.4691 16.879 18.941C16.4455 19.4115 15.8668 19.6672 15.2728 19.6672H4.72713C4.13322 19.6672 3.55445 19.4115 3.12095 18.941C2.68619 18.4691 2.43562 17.8209 2.43562 17.1374V13.4343V12.9343H1.93562H1.00512C0.904774 12.9343 0.799364 12.8914 0.714871 12.7997C0.629111 12.7066 0.574615 12.5722 0.574615 12.4244C0.574615 12.2765 0.629111 12.1421 0.714871 12.049C0.799364 11.9573 0.904774 11.9144 1.00512 11.9144H1.93562H2.43562V11.4144V8.38465C2.43562 7.70109 2.68619 7.05294 3.12095 6.58106C3.55445 6.11056 4.13322 5.85486 4.72713 5.85486H9.37965H9.87965V5.35486V2.66171V2.16171H9.37965H7.82881C7.72847 2.16171 7.62306 2.11881 7.53856 2.02711C7.45281 1.93403 7.39831 1.79963 7.39831 1.65178C7.39831 1.50392 7.45281 1.36953 7.53856 1.27645C7.62306 1.18474 7.72847 1.14185 7.82881 1.14185H10.3102C10.4105 1.14185 10.5159 1.18474 10.6004 1.27645C10.6862 1.36953 10.7407 1.50392 10.7407 1.65178V5.35486ZM16.2985 7.33172L15.9308 7.67052L16.2985 7.33172C16.034 7.04463 15.6661 6.87472 15.2728 6.87472H4.72713C4.33391 6.87472 3.96597 7.04463 3.70145 7.33172C3.4382 7.61744 3.29663 7.9968 3.29663 8.38465V17.1374C3.29663 17.9317 3.89958 18.6473 4.72713 18.6473H15.2728C15.6661 18.6473 16.034 18.4774 16.2985 18.1903C16.5618 17.9046 16.7033 17.5252 16.7033 17.1374V8.38465C16.7033 7.9968 16.5618 7.61744 16.2985 7.33172Z" fill="black" stroke="black"/>
</svg>
